<?xml version="1.0" encoding="UTF-8"?>
<svg width="380px" height="373px" viewBox="0 0 380 373" version="1.1" xmlns="http://www.w3.org/2000/svg" xmlns:xlink="http://www.w3.org/1999/xlink">
    <title>fist</title>
    <g id="BLM" stroke="none" stroke-width="1" fill="none" fill-rule="evenodd">
        <g id="blm-icon-active" transform="translate(-60.000000, -61.000000)" fill="#FFFFFF">
            <path d="M250,61 C354.934102,61 440,146.160398 440,251.211073 C440,330.707347 391.286276,398.81328 322.11257,427.243744 C322.113751,404.703361 322.113608,382.167873 322.145886,359.632385 C322.147613,358.583838 322.362366,357.436287 322.818459,356.501976 C333.143554,335.360033 343.517676,314.242323 353.875225,293.11665 C354.352034,292.143914 354.760135,291.136908 355.2,290.146172 L355.2,290.146172 L355.2,200.142159 C353.881095,197.616162 352.937836,194.783805 351.179756,192.615747 C342.147672,181.479135 324.565491,183.808162 318.523731,196.857359 C310.179065,214.881008 301.915537,232.942391 293.588825,250.974694 C291.822459,254.799865 291.532438,258.661383 293.271874,262.509747 C295.481558,267.398696 299.331242,270.234168 304.717347,270.317941 C310.339958,270.40483 314.766922,267.997569 317.242459,262.742719 C321.193305,254.358153 325.034703,245.921662 328.924093,237.507671 C329.164396,236.988763 329.419891,236.477125 329.746164,235.798979 C332.688152,237.152155 335.575242,238.480061 338.60976,239.875815 C337.892303,241.451231 337.233886,242.902027 336.571326,244.351438 C333.195688,251.73419 329.943309,259.176829 326.409541,266.483078 C322.208379,275.168465 315.173987,280.01622 305.51456,280.216652 C296.766973,280.398045 289.981516,276.366903 285.568017,268.801374 C284.032977,266.169449 283.25648,263.093042 282.061524,260.035329 C275.357204,263.139429 268.15536,264.200784 260.492589,261.326194 C261.035343,263.732071 261.698248,265.872782 261.973768,268.062302 C262.528261,272.458998 263.177701,276.877849 263.242611,281.295662 C263.416623,293.119766 263.304067,304.948024 263.299579,316.774551 C263.299234,317.280651 263.243646,317.786404 263.208775,318.385277 L263.208775,318.385277 L253.438518,318.385277 L253.438518,316.351186 C253.438518,305.216997 253.614602,294.079001 253.400539,282.948966 C252.987949,261.524203 243.690013,244.99012 225.46288,233.741003 C214.424472,226.928046 202.288126,223.202918 189.399798,221.920361 C188.836674,221.864281 188.281145,221.732737 187.57232,221.610539 C187.797432,221.03486 187.948312,220.563377 188.159958,220.121319 C194.898804,206.049538 201.662164,191.989526 208.355436,177.89559 C208.939966,176.664266 209.585954,176.251632 210.938349,176.265825 C220.047773,176.36206 228.973171,175.253973 237.3496,171.411494 C249.387891,165.889401 257.477752,156.923963 260.752227,143.884805 C260.958004,143.06473 261.020497,142.208307 261.191057,141.098142 L261.191057,141.098142 L259.351495,141.098142 C233.286198,141.098488 207.220556,141.070449 181.155259,141.110258 C168.341853,141.12999 159.438552,147.610971 154.421533,159.454807 C149.932766,170.052779 144.805954,180.379355 139.951899,190.821551 C135.995874,199.331431 131.948699,207.79977 128.112825,216.363305 C126.976909,218.899341 126.421381,221.696389 125.6,224.374009 L125.6,224.374009 L125.6,230.605056 C125.886223,231.827379 126.175554,233.049357 126.458324,234.272373 C127.429895,238.473483 129.708977,241.984332 132.253912,245.361906 C152.53536,272.280029 172.802653,299.208191 193.112413,326.104159 C194.172716,327.508222 194.65712,328.877668 194.654703,330.659401 C194.606366,366.772818 194.618451,402.886582 194.620177,439 L194.617974,433.214998 C116.69862,409.482605 60,336.975531 60,251.211073 C60,146.160398 145.065898,61 250,61 Z M327.272823,152.740303 C330.828694,140.474787 320.933106,127.886448 306.544364,128.283821 C299.561581,128.718297 293.605628,133.04155 290.010344,140.908222 C277.354419,168.595701 264.647325,196.259949 251.981719,223.942574 C251.336234,225.352104 250.79447,226.825783 250.367143,228.316799 C246.827868,240.669003 255.974597,253.148116 268.767087,253.213295 C277.644489,253.258035 283.802351,248.785333 287.46367,240.816024 C299.282574,215.091831 311.070708,189.353422 322.828763,163.601143 C324.45302,160.042816 326.188949,156.477553 327.272823,152.740303 Z M273.028538,109.941104 C264.318922,105.040219 253.117681,107.514786 247.514466,116.133943 C244.560635,120.677996 242.580343,125.858654 240.010185,131.054584 L240.010185,131.054584 L242.310492,131.054584 C249.690918,131.054584 257.074113,131.176768 264.449696,130.985856 C266.898767,130.922335 268.203393,132.061906 269.24059,133.879041 C269.746388,134.765567 270.257721,135.801004 270.283668,136.781945 C270.359434,139.646319 270.610603,142.603373 270.046683,145.37125 C267.625289,157.262986 261.177233,166.715214 251.684011,174.058384 C241.569439,181.882306 229.821577,185.189596 217.249286,185.861953 C215.512898,185.954633 214.645223,186.489533 213.908668,188.073756 C210.136634,196.186822 206.227254,204.235673 202.36873,212.308127 C202.12621,212.815606 201.906869,213.333846 201.6,214.018352 C214.7286,217.324948 226.896115,222.464647 237.70538,230.788411 C238.070371,230.032399 238.378278,229.420092 238.664043,228.797025 C248.720493,206.863664 258.777634,184.93065 268.828202,162.994512 C273.084238,153.705428 277.446138,144.462509 281.539225,135.101919 C285.646496,125.708701 281.883804,114.924255 273.028538,109.941104 Z M221.552923,87.4293281 L216.398384,87.4293281 C216.254057,87.5149743 216.119008,87.651939 215.964372,87.6789851 C208.658673,88.9678398 203.724061,93.2480716 200.686663,99.9527511 C196.17438,109.913375 191.645946,119.86637 187.125415,129.82318 C186.902052,130.315906 186.690372,130.814527 186.4,131.477505 C200.585634,131.477505 214.486394,131.486867 228.38681,131.437282 C228.84797,131.435895 229.529056,130.945943 229.733863,130.506616 C232.161651,125.289823 234.669849,120.102504 236.86259,114.784115 C241.332263,103.94241 235.693541,91.875998 224.643584,88.3180379 C223.623329,87.9896695 222.583487,87.7240621 221.552923,87.4293281 L221.552923,87.4293281 Z" id="fist"></path>
        </g>
    </g>
</svg>